<?xml version="1.0" encoding="utf-8"?>
<!-- Svg Vector Icons : http://www.onlinewebfonts.com/icon -->
<!DOCTYPE svg PUBLIC "-//W3C//DTD SVG 1.1//EN" "http://www.w3.org/Graphics/SVG/1.1/DTD/svg11.dtd">
<svg version="1.1" xmlns="http://www.w3.org/2000/svg" xmlns:xlink="http://www.w3.org/1999/xlink" x="0px" y="0px" viewBox="0 0 256 256" enable-background="new 0 0 256 256" xml:space="preserve">
<metadata> Svg Vector Icons : http://www.onlinewebfonts.com/icon </metadata>
<g><g><g><path fill="#000000" d="M82.3,1.8c-3.3,1.3-6.5,4.5-7.8,7.9c-0.8,2.2-1,3.8-1,10.5v8h-22c-23.9,0-25.1,0.1-30.6,2.8c-3.6,1.8-7.3,5.6-9.2,9.5l-1.6,3.3L10,142.1c-0.1,86.5,0,98.7,0.6,101c1,3.4,4.5,7.3,8.2,9.1c6.2,3.1,0.6,3,108.3,3c106.4,0,102.1,0.1,108.3-2.7c4.1-1.8,6.6-4.2,8.7-8l1.8-3.4v-98.2c0-109.5,0.3-100.7-3.4-105.7c-2.3-3-7.1-6.3-11.4-7.8c-3.2-1.1-4.2-1.1-25.9-1.4l-22.6-0.2l-0.2-9c-0.2-8.9-0.2-9-1.7-11.4c-1.7-2.7-5.2-5.4-8.3-6.2c-5.6-1.5-12.1,1.3-15.1,6.4c-1.3,2.3-1.4,2.6-1.6,11.3l-0.2,8.9L128.1,28l-27.2,0.1v-7.6c0-9.7-0.6-11.9-4.1-15.5C92.6,0.9,87.5-0.3,82.3,1.8z M73.6,52.6c0.2,7.3,0.8,9.2,3.9,12.3c2.8,2.8,5.2,3.8,9.6,3.8c4.8,0,7.1-1,10.1-4.5c2.7-3.1,3.5-6,3.5-12.7V46l27.2,0.1l27.2,0.1l0.2,6.7c0.2,6.2,0.3,6.9,1.6,9c5.4,9.1,18.2,9.1,23.7,0c1.2-2.1,1.3-2.8,1.6-9l0.2-6.7h22.6h22.6l0.1,27.2l0.1,27.2h-99.9H28.3V73.3V46h22.6h22.6L73.6,52.6z M99.4,124c16.1,2.5,25.6,12.8,24.7,26.3c-0.6,9.4-5.7,16.2-14.9,20l-3.9,1.6l3.6,1c10.5,3,16.7,9.8,18.3,19.8c1.7,10.9-3.6,21.9-13.4,27.9c-3.7,2.2-9.4,4.4-14.8,5.6c-5.4,1.1-18.2,1.2-24.3,0c-8.5-1.6-17.8-5.1-17.4-6.4c0.1-0.3,1.1-4.1,2.2-8.3c1.1-4.2,2.1-8,2.2-8.3c0.1-0.4,1.2-0.1,3.4,0.8c6.3,2.9,11.4,4.1,18.4,4.3c7.2,0.3,10.6-0.3,14.4-2.5c7-4.1,7.6-13.4,1.2-18.8c-3.6-3.1-6.9-3.9-16.9-4.2l-8.8-0.3v-9.1v-9.1h6.5c10.2,0,15.7-1.8,19.1-6.2c3.5-4.6,1.7-11.4-3.7-14.2c-6-3.1-16.6-2.2-26.1,2.2c-2.1,0.9-3.9,1.7-3.9,1.6c-0.1-0.1-1.2-3.8-2.4-8.3c-2.7-9.3-2.8-8.5,2.2-10.8C74.2,124.6,89.5,122.5,99.4,124z M191.8,173.5v49.9h-11.4H169v-38.5c0-21.2-0.2-38.5-0.4-38.5c-0.2,0-4.4,1.9-9.3,4.2c-4.9,2.3-9.1,4.2-9.3,4.1c-0.4-0.2-4.4-17.7-4.1-18c0,0,6-3,13.2-6.6l13.1-6.5h9.8h9.9L191.8,173.5L191.8,173.5z"/></g></g></g>
</svg>