<?xml version="1.0" encoding="utf-8"?>
<!-- Svg Vector Icons : http://www.onlinewebfonts.com/icon -->
<!DOCTYPE svg PUBLIC "-//W3C//DTD SVG 1.1//EN" "http://www.w3.org/Graphics/SVG/1.1/DTD/svg11.dtd">
<svg version="1.1" xmlns="http://www.w3.org/2000/svg" xmlns:xlink="http://www.w3.org/1999/xlink" x="0px" y="0px" viewBox="0 0 256 256" enable-background="new 0 0 256 256" xml:space="preserve">
<metadata> Svg Vector Icons : http://www.onlinewebfonts.com/icon </metadata>
<g><g><path fill="#000000" d="M74.3,90.5c-8.8,0-16,7.6-16,16.9v41.3c0,9.3,7.2,16.9,16,16.9h5.5c8.8,0,16-7.6,16-16.9v-41.3c0-9.3-7.2-16.9-16-16.9H74.3L74.3,90.5z M176.2,176.3c-8.8,0-16,7.6-16,16.9v41.3c0,9.3,7.2,16.9,16,16.9h5.5c8.8,0,16-7.6,16-16.9v-41.3c0-9.3-7.2-16.9-16-16.9H176.2L176.2,176.3z M176.2,4.6c-8.8,0-16,7.6-16,16.9v41.3c0,9.3,7.2,16.9,16,16.9h5.5c8.8,0,16-7.6,16-16.9V21.5c0-9.3-7.2-16.9-16-16.9H176.2L176.2,4.6z M149.5,36.8H10v10.7h139.5L149.5,36.8L149.5,36.8z M246,47.5V36.8h-37.5v10.7H246z M47.5,122.6H10v10.7h37.5V122.6z M246,133.4v-10.7H106.5v10.7H246z M149.5,208.5H10v10.7h139.5L149.5,208.5L149.5,208.5z M246,219.2v-10.7h-37.5v10.7H246z"/></g></g>
</svg>