<?xml version="1.0" encoding="utf-8"?>
<!-- Svg Vector Icons : http://www.onlinewebfonts.com/icon -->
<!DOCTYPE svg PUBLIC "-//W3C//DTD SVG 1.1//EN" "http://www.w3.org/Graphics/SVG/1.1/DTD/svg11.dtd">
<svg version="1.1" xmlns="http://www.w3.org/2000/svg" xmlns:xlink="http://www.w3.org/1999/xlink" x="0px" y="0px" viewBox="0 0 256 256" enable-background="new 0 0 256 256" xml:space="preserve">
<metadata> Svg Vector Icons : http://www.onlinewebfonts.com/icon </metadata>
<g><g><g><path fill="#cd4025" d="M70.8,25.1c-15.9,2.2-28.3,8.4-39.7,19.8c-7.9,8-12.5,14.9-16.4,25.1c-9.8,25.3-3.9,55.9,14.5,75.4c1.8,1.8,16.5,15.8,32.9,31.1s35.1,32.9,41.7,39c6.6,6.2,13,11.8,14.3,12.6c3.1,1.8,7.7,3.2,10.4,3.2c2.7,0,6.5-1.1,9.3-2.7c1.2-0.7,6.6-5.7,12.2-11.2c12.5-12.3,26.4-25.3,54.2-50.9c22.2-20.5,25.6-23.9,29.7-30.1c16.3-24.3,16.2-56.5,0-81.2c-4.1-6.1-13-15.1-19-19.1c-26-17.3-60.1-14.8-82.7,5.9c-1.9,1.8-3.8,3.3-4.1,3.3c-0.3,0-2.1-1.5-4-3.2c-8.5-7.9-19.6-13.6-32.1-16.2C87,24.9,75.5,24.4,70.8,25.1z"/></g></g></g>
</svg>