<?xml version="1.0" encoding="utf-8"?>
<!-- Svg Vector Icons : http://www.onlinewebfonts.com/icon -->
<!DOCTYPE svg PUBLIC "-//W3C//DTD SVG 1.1//EN" "http://www.w3.org/Graphics/SVG/1.1/DTD/svg11.dtd">
<svg version="1.1" xmlns="http://www.w3.org/2000/svg" xmlns:xlink="http://www.w3.org/1999/xlink" x="0px" y="0px" viewBox="0 0 256 256" enable-background="new 0 0 256 256" xml:space="preserve">
<metadata> Svg Vector Icons : http://www.onlinewebfonts.com/icon </metadata>
<g><g><g><path fill="#ffffff" d="M118.2,28.1l-0.1,18.1l-4.4,0.8c-12,2.1-23.6,7.1-34.2,14.6c-5,3.6-14.5,13.2-18.3,18.6c-6.5,9.2-11.6,21.2-13.9,32.6l-1.1,5.4l-18.1,0.1L10,118.3v9.7v9.7h18.2h18.2l0.3,2.6c1.2,10.2,6.6,23.9,13.2,33.6c12.8,19,34.1,32.4,56.3,35.4l2.2,0.3v18.2V246h9.7h9.7v-18.2c0-10,0.2-18.2,0.4-18.2c1.4,0,8.9-1.6,12.7-2.7c29.4-8.5,51.6-32.6,57.8-62.6c0.6-2.6,1-5.1,1-5.6c0-1,0.1-1,18.2-1H246V128v-9.7l-18.1-0.1l-18.1-0.1l-1.1-5.4c-2.8-14.1-8.7-26.6-17.7-37.5c-11.9-14.3-29-24.4-47.1-27.9c-2.8-0.6-5.4-1.1-5.7-1.2c-0.5-0.1-0.6-4.1-0.6-18.2V10H128h-9.7L118.2,28.1z M138.4,66c6,1,13.6,3.6,18.7,6.4c17,9.1,28.4,24.4,32.5,43.3c1.2,5.4,1.2,19.3,0,24.8c-5.7,26-26.4,45.6-52.4,49.6c-12.4,1.9-25.1-0.1-36.6-5.7c-18.5-9-31.2-26.1-34.6-46.6c-0.6-3.7-0.7-6.4-0.6-12c0.4-10.1,1.9-16.7,6.1-25.2c8.8-18,26-31,45.6-34.5C122.2,65.2,133.3,65.1,138.4,66z"/><path fill="#ffffff" d="M122.7,89.7C99.6,93.3,85,115.4,90.8,138c2.5,9.7,10.1,19.2,19,23.8c7,3.5,9.8,4.2,18.1,4.2c6.2,0,7.6-0.1,10.6-1.1c6-1.9,11.2-4.9,15.5-8.9c8.2-7.8,12.2-16.8,12.2-27.8c0.1-20.9-15.7-37.7-36.6-38.7C127.4,89.4,124.2,89.5,122.7,89.7z"/></g></g></g>
</svg>