<?xml version="1.0" encoding="utf-8"?>
<!-- Svg Vector Icons : http://www.onlinewebfonts.com/icon -->
<!DOCTYPE svg PUBLIC "-//W3C//DTD SVG 1.1//EN" "http://www.w3.org/Graphics/SVG/1.1/DTD/svg11.dtd">
<svg version="1.1" xmlns="http://www.w3.org/2000/svg" xmlns:xlink="http://www.w3.org/1999/xlink" x="0px" y="0px" viewBox="0 0 256 256" enable-background="new 0 0 256 256" xml:space="preserve">
<metadata> Svg Vector Icons : http://www.onlinewebfonts.com/icon </metadata>
<g><g><g><path fill="#000000" d="M106.3,9.1c-24.4,1.9-48,12.9-65.8,30.7c-8.3,8.4-14.3,16.8-19.7,27.7c-8.5,17.1-12.1,36.5-10.3,54.8c2.4,24,13.1,46.4,30.3,63.6c8.6,8.6,18.1,15.4,29.3,20.7c10.4,5.1,22.5,8.4,34.5,9.5c23,2.2,47.5-4.1,66.9-17.4c2.5-1.7,4.7-3.1,4.9-3.1c0.1,0,11.3,11.6,24.8,25.8c13.5,14.2,24.7,25.8,24.8,25.8c0.2,0,4.8-4.4,10.2-9.9l9.9-9.9l-18.1-19.1c-10-10.5-21.1-22.2-24.8-26l-6.6-7l3.8-5.7c6.4-9.6,11.5-21.2,14.4-32.6c3.9-15.5,3.9-33.3,0-48.7c-4.8-19-14.4-35.7-28.7-49.6c-5.6-5.5-9.1-8.3-15.4-12.5C151.8,13.6,128.6,7.4,106.3,9.1z M122.6,18.8c19.4,1.9,37.7,9.4,51.9,21.2c23.2,19.3,35.9,49.6,33.4,79.8c-2.1,26.4-13.7,49.2-33.5,65.7c-28.2,23.5-69.3,28.3-102.7,11.9c-16.1-7.9-30-20.8-39.2-36.3C13.4,128.4,15.7,86.3,38.2,56c3.6-4.9,11.3-12.9,16.2-16.8C73,24,98.5,16.4,122.6,18.8z"/></g></g></g>
</svg>