<?xml version="1.0" encoding="utf-8"?>
<!-- Svg Vector Icons : http://www.onlinewebfonts.com/icon -->
<!DOCTYPE svg PUBLIC "-//W3C//DTD SVG 1.1//EN" "http://www.w3.org/Graphics/SVG/1.1/DTD/svg11.dtd">
<svg version="1.1" xmlns="http://www.w3.org/2000/svg" xmlns:xlink="http://www.w3.org/1999/xlink" x="0px" y="0px" viewBox="0 0 256 256" enable-background="new 0 0 256 256" xml:space="preserve">
<metadata> Svg Vector Icons : http://www.onlinewebfonts.com/icon </metadata>
<g><g><g><path fill="#000000" d="M194.8,10.6c-9.5,1.7-17.6,6.1-24.1,12.9c-7.8,8.2-11.6,17-12,28.3c-0.2,5.7,0.1,9.3,1.5,14.4c0.2,0.8-3.8,2.9-35.3,18.7l-35.5,17.8l-1.2-1.6c-1.9-2.5-6.9-7.2-9.7-9.1c-5.1-3.4-10.7-5.7-17-7c-3.8-0.8-12.7-0.6-16.7,0.2C31.3,88,20.3,96.6,14.4,108.8c-3.5,7-4.4,11.1-4.4,19.2s0.9,12.2,4.4,19.2c9.6,19.6,31.9,29.1,52.8,22.4c7.8-2.5,16.3-8.4,20.9-14.6l1.2-1.6l35.5,17.8c31.5,15.8,35.5,17.8,35.3,18.7c-1.3,5.1-1.7,8.7-1.5,14.4c0.5,11.3,4.2,20.1,12,28.3c5.1,5.4,11.2,9.3,18.2,11.4c15.9,5,32.5,1,44.3-10.8c11.7-11.8,15.8-28.4,10.8-44.3c-3.7-11.5-12.2-21.2-23.5-26.5c-6.6-3-9.8-3.7-18.3-3.6c-7,0-8,0.1-11.7,1.3c-8.2,2.5-14.1,6.3-20.2,12.6l-3.8,4.1l-35.4-17.7c-33-16.5-35.4-17.8-35.2-18.7c2.2-7.4,2.2-17.3,0-24.7c-0.3-0.9,2.2-2.2,35.2-18.7l35.4-17.7l3.8,4.1c6.1,6.4,12,10.1,20.2,12.7c3.7,1.1,4.8,1.3,11.7,1.3c6.4,0,8.2-0.2,11.2-1c15.9-4.4,27.7-16.6,31.7-32.9c1.1-4.3,1.1-14.9,0-19.2c-2.1-8.5-6-15.4-12.1-21.5C222.9,12.7,208.4,8.1,194.8,10.6z M208.8,24c8.5,1.8,16.7,8.2,20.6,16c4.4,9.1,4.4,19-0.3,27.9c-2.5,4.8-8.4,10.6-13.2,13c-5.2,2.5-8.8,3.2-15,3c-8.3-0.4-14.4-3-20.1-8.8c-5.8-5.7-8.4-11.8-8.8-20.1c-0.4-9.5,2.1-15.9,8.7-22.5C188.5,24.7,198.2,21.8,208.8,24z M58.9,98.1c14.7,2.7,25,15.1,25,29.9c0,5.3-0.8,8.8-3.2,13.7c-9,18.3-34,22.4-48.4,7.9c-3.8-3.8-5.9-7.1-7.6-11.9c-1.1-3-1.2-4.1-1.2-9.6c0-5.6,0.1-6.6,1.2-9.6c2.8-7.9,8.1-13.9,15.3-17.5C46.4,97.7,52.1,96.9,58.9,98.1z M209.4,172.7c5.4,1.3,9.6,3.8,14,8.1c7.8,7.7,10.8,17.5,8.5,28c-2.3,11.1-12,20.9-23.2,23.2c-10.6,2.2-20.3-0.7-28-8.5c-6.2-6.2-8.8-12.5-8.8-21.1c0-7.1,2-13.1,6.2-18.6c3.9-5.2,10.5-9.5,16.8-11C198.5,171.9,205.7,171.9,209.4,172.7z"/></g></g></g>
</svg>