<?xml version="1.0" encoding="utf-8"?>
<!-- Svg Vector Icons : http://www.onlinewebfonts.com/icon -->
<!DOCTYPE svg PUBLIC "-//W3C//DTD SVG 1.1//EN" "http://www.w3.org/Graphics/SVG/1.1/DTD/svg11.dtd">
<svg version="1.1" xmlns="http://www.w3.org/2000/svg" xmlns:xlink="http://www.w3.org/1999/xlink" x="0px" y="0px" viewBox="0 0 256 256" enable-background="new 0 0 256 256" xml:space="preserve">
<metadata> Svg Vector Icons : http://www.onlinewebfonts.com/icon </metadata>
<g><g><g><path fill="#64748b" d="M98.8,13.5c-21.5,5.7-36.9,14.6-53.7,31.6C28,62.1,19.3,77.3,13.6,99.6c-7.1,27.8-3.6,58,10.3,84.2c8.3,16,32.4,40.1,48.3,48.3c26.2,13.8,56.4,17.4,84.2,10.3c22.3-5.7,37.5-14.4,54.5-31.6c17.2-17,25.8-32.2,31.6-54.5c7.1-27.8,3.6-58-10.3-84.2c-8.3-16-32.4-40.1-48.3-48.3C157.8,10.2,126.4,6.4,98.8,13.5z M135.9,88.5v31.6h23.7h23.7v7.9v7.9h-31.6h-31.6V96.4V56.9h7.9h7.9V88.5z"/></g></g></g>
</svg>